<mxfile host="app.diagrams.net" modified="2023-04-18T09:33:26.679Z" agent="Mozilla/5.0 (X11; Linux x86_64) AppleWebKit/537.36 (KHTML, like Gecko) Chrome/112.0.0.0 Safari/537.36" etag="rd4xbz0o5KUmnPOPwHXX" version="21.1.8" type="device">
  <diagram id="cstUYs0_MrwpeLKSXvVJ" name="Page-1">
    <mxGraphModel dx="973" dy="745" grid="1" gridSize="10" guides="1" tooltips="1" connect="1" arrows="1" fold="1" page="1" pageScale="1" pageWidth="850" pageHeight="1100" math="0" shadow="0">
      <root>
        <mxCell id="0" />
        <mxCell id="1" parent="0" />
        <mxCell id="sjuPgM3rsrCpVb7vP8mB-12" value="&lt;b&gt;Google &lt;/b&gt;Cloud Platform" style="fillColor=#F6F6F6;strokeColor=none;shadow=0;gradientColor=none;fontSize=14;align=left;spacing=10;fontColor=#717171;9E9E9E;verticalAlign=top;spacingTop=-4;fontStyle=0;spacingLeft=40;html=1;container=0;" parent="1" vertex="1">
          <mxGeometry x="108" y="82" width="602" height="638" as="geometry" />
        </mxCell>
        <mxCell id="04NytanJjaSaexqy_Y4b-19" value="" style="sketch=0;points=[[0,0,0],[0.25,0,0],[0.5,0,0],[0.75,0,0],[1,0,0],[1,0.25,0],[1,0.5,0],[1,0.75,0],[1,1,0],[0.75,1,0],[0.5,1,0],[0.25,1,0],[0,1,0],[0,0.75,0],[0,0.5,0],[0,0.25,0]];rounded=1;absoluteArcSize=1;arcSize=2;html=1;strokeColor=none;gradientColor=none;shadow=0;dashed=0;fontSize=12;fontColor=#9E9E9E;align=left;verticalAlign=top;spacing=10;spacingTop=-4;fillColor=#E8F5E9;" parent="1" vertex="1">
          <mxGeometry x="120" y="410" width="580" height="310" as="geometry">
            <mxPoint x="10" y="50" as="offset" />
          </mxGeometry>
        </mxCell>
        <mxCell id="04NytanJjaSaexqy_Y4b-9" value="subnet" style="sketch=0;points=[[0,0,0],[0.25,0,0],[0.5,0,0],[0.75,0,0],[1,0,0],[1,0.25,0],[1,0.5,0],[1,0.75,0],[1,1,0],[0.75,1,0],[0.5,1,0],[0.25,1,0],[0,1,0],[0,0.75,0],[0,0.5,0],[0,0.25,0]];rounded=1;absoluteArcSize=1;arcSize=2;html=1;strokeColor=none;gradientColor=none;shadow=0;dashed=0;fontSize=12;fontColor=#000000;align=left;verticalAlign=top;spacing=10;spacingTop=-4;fillColor=#F3E5F5;" parent="1" vertex="1">
          <mxGeometry x="140" y="510" width="552" height="190" as="geometry" />
        </mxCell>
        <mxCell id="04NytanJjaSaexqy_Y4b-27" value="&lt;div align=&quot;left&quot;&gt;region&lt;/div&gt;" style="text;html=1;resizable=0;autosize=1;align=left;verticalAlign=middle;points=[];fillColor=none;strokeColor=none;rounded=0;" parent="1" vertex="1">
          <mxGeometry x="127" y="418" width="50" height="20" as="geometry" />
        </mxCell>
        <mxCell id="4L4TsIcvxuaD26HZeU3--1" value="&lt;div&gt;ssl-&lt;/div&gt;&lt;div&gt;certificates&lt;/div&gt;" style="sketch=0;points=[[0,0,0],[0.25,0,0],[0.5,0,0],[0.75,0,0],[1,0,0],[1,0.25,0],[1,0.5,0],[1,0.75,0],[1,1,0],[0.75,1,0],[0.5,1,0],[0.25,1,0],[0,1,0],[0,0.75,0],[0,0.5,0],[0,0.25,0]];rounded=1;absoluteArcSize=1;arcSize=2;html=1;strokeColor=#CCCCCC;gradientColor=none;shadow=0;dashed=0;fontSize=12;fontColor=#000000;align=center;verticalAlign=top;spacing=10;spacingTop=-4;fillColor=#FFFFFF;strokeWidth=1;" parent="1" vertex="1">
          <mxGeometry x="220" y="187.5" width="100" height="55" as="geometry" />
        </mxCell>
        <mxCell id="BPpdw_s69a40fWfZZwsO-12" value="&lt;div&gt;backend-services&lt;/div&gt;&lt;div&gt;&lt;br&gt;&lt;/div&gt;&lt;div&gt;(normal usage)&lt;br&gt;&lt;/div&gt;" style="sketch=0;points=[[0,0,0],[0.25,0,0],[0.5,0,0],[0.75,0,0],[1,0,0],[1,0.25,0],[1,0.5,0],[1,0.75,0],[1,1,0],[0.75,1,0],[0.5,1,0],[0.25,1,0],[0,1,0],[0,0.75,0],[0,0.5,0],[0,0.25,0]];rounded=1;absoluteArcSize=1;arcSize=2;html=1;strokeColor=#CCCCCC;gradientColor=none;shadow=0;dashed=0;fontSize=12;fontColor=#000000;align=center;verticalAlign=top;spacing=10;spacingTop=-4;fillColor=#FFFFFF;strokeWidth=1;" parent="1" vertex="1">
          <mxGeometry x="472" y="322" width="130" height="60" as="geometry" />
        </mxCell>
        <mxCell id="BPpdw_s69a40fWfZZwsO-19" value="&lt;div&gt;health-&lt;/div&gt;&lt;div&gt;checks&lt;/div&gt;" style="sketch=0;points=[[0,0,0],[0.25,0,0],[0.5,0,0],[0.75,0,0],[1,0,0],[1,0.25,0],[1,0.5,0],[1,0.75,0],[1,1,0],[0.75,1,0],[0.5,1,0],[0.25,1,0],[0,1,0],[0,0.75,0],[0,0.5,0],[0,0.25,0]];rounded=1;absoluteArcSize=1;arcSize=2;html=1;strokeColor=#CCCCCC;gradientColor=none;shadow=0;dashed=0;fontSize=12;fontColor=#000000;align=center;verticalAlign=top;spacing=10;spacingTop=-4;fillColor=#FFFFFF;strokeWidth=1;" parent="1" vertex="1">
          <mxGeometry x="610" y="330.5" width="90" height="43" as="geometry" />
        </mxCell>
        <mxCell id="BPpdw_s69a40fWfZZwsO-28" value="" style="endArrow=none;html=1;rounded=0;entryX=0;entryY=0.5;entryDx=0;entryDy=0;entryPerimeter=0;exitX=0.985;exitY=0.5;exitDx=0;exitDy=0;exitPerimeter=0;" parent="1" source="BPpdw_s69a40fWfZZwsO-12" target="BPpdw_s69a40fWfZZwsO-19" edge="1">
          <mxGeometry width="50" height="50" relative="1" as="geometry">
            <mxPoint x="435" y="507" as="sourcePoint" />
            <mxPoint x="485" y="457" as="targetPoint" />
          </mxGeometry>
        </mxCell>
        <mxCell id="BPpdw_s69a40fWfZZwsO-32" value="&lt;div&gt;target-https-proxies&lt;/div&gt;&lt;div&gt;&lt;br&gt;&lt;/div&gt;&lt;div&gt;global external&lt;/div&gt;&lt;div&gt;HTTPS load balancer&lt;br&gt;&lt;/div&gt;" style="sketch=0;points=[[0,0,0],[0.25,0,0],[0.5,0,0],[0.75,0,0],[1,0,0],[1,0.25,0],[1,0.5,0],[1,0.75,0],[1,1,0],[0.75,1,0],[0.5,1,0],[0.25,1,0],[0,1,0],[0,0.75,0],[0,0.5,0],[0,0.25,0]];rounded=1;absoluteArcSize=1;arcSize=2;html=1;strokeColor=#CCCCCC;gradientColor=none;shadow=0;dashed=0;fontSize=12;fontColor=#000000;align=center;verticalAlign=top;spacing=10;spacingTop=-4;fillColor=#FFFFFF;strokeWidth=1;" parent="1" vertex="1">
          <mxGeometry x="346" y="175" width="170" height="80" as="geometry" />
        </mxCell>
        <mxCell id="BPpdw_s69a40fWfZZwsO-35" value="" style="endArrow=none;html=1;rounded=0;entryX=0;entryY=0.5;entryDx=0;entryDy=0;entryPerimeter=0;" parent="1" source="4L4TsIcvxuaD26HZeU3--1" target="BPpdw_s69a40fWfZZwsO-32" edge="1">
          <mxGeometry width="50" height="50" relative="1" as="geometry">
            <mxPoint x="208" y="547" as="sourcePoint" />
            <mxPoint x="258" y="497" as="targetPoint" />
          </mxGeometry>
        </mxCell>
        <mxCell id="sjuPgM3rsrCpVb7vP8mB-3" value="&lt;div&gt;forwarding-rule&lt;/div&gt;&lt;div&gt;&lt;br&gt;&lt;/div&gt;IP:port of LB" style="sketch=0;points=[[0,0,0],[0.25,0,0],[0.5,0,0],[0.75,0,0],[1,0,0],[1,0.25,0],[1,0.5,0],[1,0.75,0],[1,1,0],[0.75,1,0],[0.5,1,0],[0.25,1,0],[0,1,0],[0,0.75,0],[0,0.5,0],[0,0.25,0]];rounded=1;absoluteArcSize=1;arcSize=2;html=1;strokeColor=#CCCCCC;gradientColor=none;shadow=0;dashed=0;fontSize=12;fontColor=#000000;align=center;verticalAlign=top;spacing=10;spacingTop=-4;fillColor=#FFFFFF;strokeWidth=1;" parent="1" vertex="1">
          <mxGeometry x="346" y="100" width="170" height="65" as="geometry" />
        </mxCell>
        <mxCell id="sjuPgM3rsrCpVb7vP8mB-7" value="" style="group" parent="1" vertex="1" connectable="0">
          <mxGeometry x="366" y="31" width="132" height="35.2" as="geometry" />
        </mxCell>
        <mxCell id="sjuPgM3rsrCpVb7vP8mB-6" value="Internet" style="sketch=0;points=[[0,0,0],[0.25,0,0],[0.5,0,0],[0.75,0,0],[1,0,0],[1,0.25,0],[1,0.5,0],[1,0.75,0],[1,1,0],[0.75,1,0],[0.5,1,0],[0.25,1,0],[0,1,0],[0,0.75,0],[0,0.5,0],[0,0.25,0]];rounded=1;absoluteArcSize=1;arcSize=2;html=1;strokeColor=#CCCCCC;gradientColor=none;shadow=0;dashed=0;fontSize=12;fontColor=#000000;align=center;verticalAlign=top;spacing=10;spacingTop=-4;fillColor=#FFFFFF;strokeWidth=1;" parent="sjuPgM3rsrCpVb7vP8mB-7" vertex="1">
          <mxGeometry width="132" height="35.2" as="geometry" />
        </mxCell>
        <mxCell id="sjuPgM3rsrCpVb7vP8mB-5" value="" style="shadow=0;dashed=0;html=1;strokeColor=none;fillColor=#808080;labelPosition=center;verticalLabelPosition=bottom;verticalAlign=top;align=center;outlineConnect=0;shape=mxgraph.veeam.globe;" parent="sjuPgM3rsrCpVb7vP8mB-7" vertex="1">
          <mxGeometry x="6.199999999999989" y="3.200000000000003" width="26.8" height="26.8" as="geometry" />
        </mxCell>
        <mxCell id="sjuPgM3rsrCpVb7vP8mB-9" value="" style="endArrow=classic;html=1;rounded=0;exitX=0.5;exitY=1;exitDx=0;exitDy=0;exitPerimeter=0;entryX=0.5;entryY=0;entryDx=0;entryDy=0;entryPerimeter=0;" parent="1" source="sjuPgM3rsrCpVb7vP8mB-6" edge="1">
          <mxGeometry width="50" height="50" relative="1" as="geometry">
            <mxPoint x="612" y="339" as="sourcePoint" />
            <mxPoint x="432" y="99" as="targetPoint" />
          </mxGeometry>
        </mxCell>
        <mxCell id="sjuPgM3rsrCpVb7vP8mB-11" value="" style="endArrow=none;html=1;rounded=0;exitX=0.5;exitY=0;exitDx=0;exitDy=0;exitPerimeter=0;entryX=0.5;entryY=1;entryDx=0;entryDy=0;entryPerimeter=0;" parent="1" source="BPpdw_s69a40fWfZZwsO-32" target="sjuPgM3rsrCpVb7vP8mB-3" edge="1">
          <mxGeometry width="50" height="50" relative="1" as="geometry">
            <mxPoint x="611" y="310" as="sourcePoint" />
            <mxPoint x="421" y="170" as="targetPoint" />
          </mxGeometry>
        </mxCell>
        <mxCell id="sjuPgM3rsrCpVb7vP8mB-13" value="" style="shape=mxgraph.gcp2.google_cloud_platform;fillColor=#F6F6F6;strokeColor=none;shadow=0;gradientColor=none;" parent="1" vertex="1">
          <mxGeometry x="126" y="90" width="23" height="20" as="geometry">
            <mxPoint x="20" y="10" as="offset" />
          </mxGeometry>
        </mxCell>
        <mxCell id="JEnQCq225Ir_zhOlaFnG-1" value="" style="shape=mxgraph.gcp2.doubleRect;strokeColor=#dddddd;shadow=1;strokeWidth=1;" parent="1" vertex="1">
          <mxGeometry x="205" y="440" width="182" height="50.78" as="geometry" />
        </mxCell>
        <mxCell id="JEnQCq225Ir_zhOlaFnG-2" value="&lt;div&gt;&lt;font color=&quot;#000000&quot;&gt;Cloud Run/Function&lt;/font&gt;&lt;/div&gt;&lt;div&gt;&lt;font color=&quot;#000000&quot;&gt;maintenance app&lt;br&gt;&lt;/font&gt;&lt;/div&gt;" style="sketch=0;dashed=0;connectable=0;html=1;fillColor=#5184F3;strokeColor=none;shape=mxgraph.gcp2.hexIcon;prIcon=cloud_functions;part=1;labelPosition=right;verticalLabelPosition=middle;align=left;verticalAlign=middle;spacingLeft=5;fontColor=#999999;fontSize=12;" parent="JEnQCq225Ir_zhOlaFnG-1" vertex="1">
          <mxGeometry y="0.5" width="44" height="39" relative="1" as="geometry">
            <mxPoint x="5" y="-19.5" as="offset" />
          </mxGeometry>
        </mxCell>
        <mxCell id="JEnQCq225Ir_zhOlaFnG-5" value="&lt;div&gt;serverless NEG&lt;/div&gt;" style="text;html=1;resizable=0;autosize=1;align=left;verticalAlign=middle;points=[];fillColor=none;strokeColor=none;rounded=0;" parent="1" vertex="1">
          <mxGeometry x="224" y="418" width="100" height="20" as="geometry" />
        </mxCell>
        <mxCell id="JEnQCq225Ir_zhOlaFnG-6" value="" style="strokeColor=#dddddd;shadow=1;strokeWidth=1;rounded=1;absoluteArcSize=1;arcSize=2;" parent="1" vertex="1">
          <mxGeometry x="439" y="575" width="130" height="60" as="geometry" />
        </mxCell>
        <mxCell id="JEnQCq225Ir_zhOlaFnG-7" value="&lt;div&gt;&lt;font color=&quot;#000000&quot;&gt;GKE Cluster&lt;/font&gt;&lt;/div&gt;&lt;div&gt;&lt;font color=&quot;#000000&quot;&gt;ASM Ingress&lt;/font&gt;&lt;br&gt;&lt;/div&gt;" style="sketch=0;dashed=0;connectable=0;html=1;fillColor=#5184F3;strokeColor=none;shape=mxgraph.gcp2.hexIcon;prIcon=container_engine;part=1;labelPosition=right;verticalLabelPosition=middle;align=left;verticalAlign=middle;spacingLeft=5;fontColor=#999999;fontSize=12;" parent="JEnQCq225Ir_zhOlaFnG-6" vertex="1">
          <mxGeometry y="0.5" width="44" height="39" relative="1" as="geometry">
            <mxPoint x="5" y="-19.5" as="offset" />
          </mxGeometry>
        </mxCell>
        <mxCell id="JEnQCq225Ir_zhOlaFnG-16" value="&lt;div&gt;zonal NEG to istio&lt;/div&gt;&lt;div&gt;ingress gateway&lt;/div&gt;&lt;div&gt;&lt;br&gt;&lt;/div&gt;" style="text;html=1;resizable=0;autosize=1;align=left;verticalAlign=middle;points=[];fillColor=none;strokeColor=none;rounded=0;" parent="1" vertex="1">
          <mxGeometry x="410" y="537" width="110" height="50" as="geometry" />
        </mxCell>
        <mxCell id="JEnQCq225Ir_zhOlaFnG-20" value="" style="sketch=0;html=1;dashed=0;whitespace=wrap;fillColor=#2875E2;strokeColor=#ffffff;points=[[0.005,0.63,0],[0.1,0.2,0],[0.9,0.2,0],[0.5,0,0],[0.995,0.63,0],[0.72,0.99,0],[0.5,1,0],[0.28,0.99,0]];shape=mxgraph.kubernetes.icon;prIcon=pod;fontColor=#000000;" parent="1" vertex="1">
          <mxGeometry x="435" y="644.2" width="30" height="28.8" as="geometry" />
        </mxCell>
        <mxCell id="JEnQCq225Ir_zhOlaFnG-21" value="container native routing" style="text;html=1;resizable=0;autosize=1;align=left;verticalAlign=middle;points=[];fillColor=none;strokeColor=none;rounded=0;" parent="1" vertex="1">
          <mxGeometry x="470" y="648.6" width="140" height="20" as="geometry" />
        </mxCell>
        <mxCell id="X4NesGkVoh1Z93VtBxHY-2" value="&lt;div&gt;backend-services&lt;/div&gt;&lt;div&gt;&lt;br&gt;&lt;/div&gt;&lt;div&gt;(for maintenance)&lt;br&gt;&lt;/div&gt;" style="sketch=0;points=[[0,0,0],[0.25,0,0],[0.5,0,0],[0.75,0,0],[1,0,0],[1,0.25,0],[1,0.5,0],[1,0.75,0],[1,1,0],[0.75,1,0],[0.5,1,0],[0.25,1,0],[0,1,0],[0,0.75,0],[0,0.5,0],[0,0.25,0]];rounded=1;absoluteArcSize=1;arcSize=2;html=1;strokeColor=#CCCCCC;gradientColor=none;shadow=0;dashed=0;fontSize=12;fontColor=#000000;align=center;verticalAlign=top;spacing=10;spacingTop=-4;fillColor=#FFFFFF;strokeWidth=1;" parent="1" vertex="1">
          <mxGeometry x="252" y="322" width="130" height="60" as="geometry" />
        </mxCell>
        <mxCell id="X4NesGkVoh1Z93VtBxHY-7" value="" style="endArrow=classic;html=1;rounded=0;strokeColor=#000000;strokeWidth=1;entryX=0.5;entryY=1;entryDx=0;entryDy=0;entryPerimeter=0;exitX=0.625;exitY=-0.02;exitDx=0;exitDy=0;exitPerimeter=0;" parent="1" source="JEnQCq225Ir_zhOlaFnG-1" edge="1">
          <mxGeometry width="50" height="50" relative="1" as="geometry">
            <mxPoint x="318" y="429" as="sourcePoint" />
            <mxPoint x="318" y="382" as="targetPoint" />
          </mxGeometry>
        </mxCell>
        <mxCell id="X4NesGkVoh1Z93VtBxHY-24" value="&lt;div style=&quot;font-size: 13px;&quot;&gt;&lt;font style=&quot;font-size: 13px;&quot;&gt;&lt;span style=&quot;font-size: 13px;&quot;&gt;swap&lt;br style=&quot;font-size: 13px;&quot;&gt;&lt;/span&gt;&lt;/font&gt;&lt;/div&gt;&lt;div style=&quot;font-size: 13px;&quot;&gt;&lt;font style=&quot;font-size: 13px;&quot;&gt;&lt;span style=&quot;font-size: 13px;&quot;&gt;url-map&lt;/span&gt;&lt;/font&gt;&lt;br style=&quot;font-size: 13px;&quot;&gt;&lt;/div&gt;" style="text;html=1;resizable=0;autosize=1;align=center;verticalAlign=middle;points=[];fillColor=none;strokeColor=none;rounded=0;fontStyle=3;fontColor=#FF0000;fontSize=13;" parent="1" vertex="1">
          <mxGeometry x="390" y="297.5" width="70" height="40" as="geometry" />
        </mxCell>
        <mxCell id="X4NesGkVoh1Z93VtBxHY-29" value="" style="endArrow=diamond;dashed=1;html=1;dashPattern=1 3;strokeWidth=2;rounded=0;fontSize=11;fontColor=#FF0000;endFill=0;exitX=0;exitY=0.5;exitDx=0;exitDy=0;exitPerimeter=0;entryX=0.555;entryY=0.988;entryDx=0;entryDy=0;entryPerimeter=0;" parent="1" source="LVqlX_i8fJR3tGQq3VMP-5" target="BPpdw_s69a40fWfZZwsO-32" edge="1">
          <mxGeometry width="50" height="50" relative="1" as="geometry">
            <mxPoint x="470" y="350" as="sourcePoint" />
            <mxPoint x="440" y="260" as="targetPoint" />
            <Array as="points">
              <mxPoint x="440" y="300" />
            </Array>
          </mxGeometry>
        </mxCell>
        <mxCell id="X4NesGkVoh1Z93VtBxHY-31" value="" style="sketch=0;html=1;dashed=0;whitespace=wrap;fillColor=#2875E2;strokeColor=#ffffff;points=[[0.005,0.63,0],[0.1,0.2,0],[0.9,0.2,0],[0.5,0,0],[0.995,0.63,0],[0.72,0.99,0],[0.5,1,0],[0.28,0.99,0]];shape=mxgraph.kubernetes.icon;prIcon=pod;fontColor=#000000;" parent="1" vertex="1">
          <mxGeometry x="445" y="654.2" width="30" height="28.8" as="geometry" />
        </mxCell>
        <mxCell id="LVqlX_i8fJR3tGQq3VMP-2" value="url-maps" style="sketch=0;points=[[0,0,0],[0.25,0,0],[0.5,0,0],[0.75,0,0],[1,0,0],[1,0.25,0],[1,0.5,0],[1,0.75,0],[1,1,0],[0.75,1,0],[0.5,1,0],[0.25,1,0],[0,1,0],[0,0.75,0],[0,0.5,0],[0,0.25,0]];rounded=1;absoluteArcSize=1;arcSize=2;html=1;strokeColor=#CCCCCC;gradientColor=none;shadow=0;dashed=0;fontSize=12;fontColor=#000000;align=center;verticalAlign=top;spacing=10;spacingTop=-4;fillColor=#FFFFFF;strokeWidth=1;" parent="1" vertex="1">
          <mxGeometry x="252" y="286" width="130" height="28" as="geometry" />
        </mxCell>
        <mxCell id="LVqlX_i8fJR3tGQq3VMP-4" value="" style="endArrow=none;html=1;rounded=0;entryX=0.5;entryY=1;entryDx=0;entryDy=0;entryPerimeter=0;exitX=0.5;exitY=0;exitDx=0;exitDy=0;exitPerimeter=0;" parent="1" source="X4NesGkVoh1Z93VtBxHY-2" target="LVqlX_i8fJR3tGQq3VMP-2" edge="1">
          <mxGeometry width="50" height="50" relative="1" as="geometry">
            <mxPoint x="400" y="450" as="sourcePoint" />
            <mxPoint x="450" y="400" as="targetPoint" />
          </mxGeometry>
        </mxCell>
        <mxCell id="LVqlX_i8fJR3tGQq3VMP-5" value="url-maps" style="sketch=0;points=[[0,0,0],[0.25,0,0],[0.5,0,0],[0.75,0,0],[1,0,0],[1,0.25,0],[1,0.5,0],[1,0.75,0],[1,1,0],[0.75,1,0],[0.5,1,0],[0.25,1,0],[0,1,0],[0,0.75,0],[0,0.5,0],[0,0.25,0]];rounded=1;absoluteArcSize=1;arcSize=2;html=1;strokeColor=#CCCCCC;gradientColor=none;shadow=0;dashed=0;fontSize=12;fontColor=#000000;align=center;verticalAlign=top;spacing=10;spacingTop=-4;fillColor=#FFFFFF;strokeWidth=1;" parent="1" vertex="1">
          <mxGeometry x="472" y="286" width="130" height="28" as="geometry" />
        </mxCell>
        <mxCell id="LVqlX_i8fJR3tGQq3VMP-6" value="" style="endArrow=none;html=1;rounded=0;entryX=0.5;entryY=1;entryDx=0;entryDy=0;entryPerimeter=0;exitX=0.5;exitY=0;exitDx=0;exitDy=0;exitPerimeter=0;" parent="1" target="LVqlX_i8fJR3tGQq3VMP-5" edge="1">
          <mxGeometry width="50" height="50" relative="1" as="geometry">
            <mxPoint x="537" y="322" as="sourcePoint" />
            <mxPoint x="670" y="400" as="targetPoint" />
          </mxGeometry>
        </mxCell>
        <mxCell id="LVqlX_i8fJR3tGQq3VMP-7" value="" style="endArrow=diamond;dashed=1;html=1;dashPattern=1 3;strokeWidth=2;rounded=0;fontSize=11;fontColor=#FF0000;endFill=0;exitX=1;exitY=0.5;exitDx=0;exitDy=0;exitPerimeter=0;entryX=0.555;entryY=0.988;entryDx=0;entryDy=0;entryPerimeter=0;" parent="1" source="LVqlX_i8fJR3tGQq3VMP-2" edge="1">
          <mxGeometry width="50" height="50" relative="1" as="geometry">
            <mxPoint x="448" y="300.96" as="sourcePoint" />
            <mxPoint x="416.35" y="254.99999999999997" as="targetPoint" />
            <Array as="points">
              <mxPoint x="416" y="300.96" />
            </Array>
          </mxGeometry>
        </mxCell>
        <mxCell id="baDWQDDhrB7u33ttoLSi-1" value="" style="endArrow=classic;html=1;rounded=0;strokeColor=#000000;strokeWidth=1;exitX=0.582;exitY=-0.04;exitDx=0;exitDy=0;exitPerimeter=0;entryX=0.326;entryY=1.036;entryDx=0;entryDy=0;entryPerimeter=0;" parent="1" source="JEnQCq225Ir_zhOlaFnG-6" target="BPpdw_s69a40fWfZZwsO-12" edge="1">
          <mxGeometry width="50" height="50" relative="1" as="geometry">
            <mxPoint x="612.5" y="598" as="sourcePoint" />
            <mxPoint x="540" y="390" as="targetPoint" />
            <Array as="points" />
          </mxGeometry>
        </mxCell>
        <mxCell id="gD-gu_OkVg6coS7xof9L-1" value="" style="endArrow=classic;html=1;rounded=0;strokeColor=#000000;strokeWidth=1;entryX=0.326;entryY=1.036;entryDx=0;entryDy=0;entryPerimeter=0;" parent="1" edge="1">
          <mxGeometry width="50" height="50" relative="1" as="geometry">
            <mxPoint x="585" y="640" as="sourcePoint" />
            <mxPoint x="585" y="384" as="targetPoint" />
            <Array as="points" />
          </mxGeometry>
        </mxCell>
      </root>
    </mxGraphModel>
  </diagram>
</mxfile>
